<svg width="105" height="19" viewBox="0 0 105 19" fill="none" xmlns="http://www.w3.org/2000/svg">
<path d="M8.256 10.608L5.952 1.608C4.816 2.04 3.936 2.712 3.312 3.624C2.688 4.52 2.376 5.624 2.376 6.936C2.376 7.528 2.432 7.944 2.544 8.184C2.656 8.408 2.712 8.536 2.712 8.568C1.848 8.568 1.2 8.392 0.768 8.04C0.352 7.672 0.144 7.072 0.144 6.24C0.144 5.216 0.56 4.224 1.392 3.264C2.24 2.288 3.32 1.504 4.632 0.912C5.944 0.303999 7.256 -1.43051e-06 8.568 -1.43051e-06C8.792 -1.43051e-06 9.112 0.0159988 9.528 0.0479994L11.616 8.64L15.168 0.119998H16.752L12.096 10.608L10.512 18H6.672L8.256 10.608ZM18.3868 18.096C17.2028 18.096 16.2668 17.792 15.5788 17.184C14.8908 16.576 14.5468 15.616 14.5468 14.304C14.5468 13.216 14.7708 12.008 15.2188 10.68C15.6668 9.352 16.3868 8.208 17.3788 7.248C18.3708 6.272 19.6188 5.784 21.1228 5.784C23.1708 5.784 24.1948 7.064 24.1948 9.624V9.648C24.2428 9.664 24.3308 9.672 24.4588 9.672C24.9868 9.672 25.5948 9.536 26.2828 9.264C26.9708 8.976 27.5948 8.632 28.1548 8.232L28.3708 8.88C27.9068 9.376 27.2988 9.8 26.5468 10.152C25.8108 10.488 25.0028 10.728 24.1228 10.872C23.9948 12.328 23.6668 13.6 23.1388 14.688C22.6108 15.776 21.9308 16.616 21.0988 17.208C20.2668 17.8 19.3628 18.096 18.3868 18.096ZM19.3468 15.936C19.7308 15.936 20.1148 15.72 20.4988 15.288C20.8828 14.84 21.2188 14.24 21.5068 13.488C21.7948 12.72 22.0028 11.872 22.1308 10.944C21.6988 10.848 21.4828 10.512 21.4828 9.936C21.4828 9.28 21.7308 8.848 22.2268 8.64C22.1948 8.112 22.1148 7.752 21.9868 7.56C21.8588 7.352 21.6348 7.248 21.3148 7.248C20.7868 7.248 20.2748 7.632 19.7788 8.4C19.2828 9.168 18.8828 10.088 18.5788 11.16C18.2748 12.232 18.1228 13.176 18.1228 13.992C18.1228 14.76 18.2108 15.28 18.3868 15.552C18.5628 15.808 18.8828 15.936 19.3468 15.936ZM27.8057 18.144C27.0377 18.144 26.4137 17.904 25.9337 17.424C25.4697 16.944 25.2377 16.224 25.2377 15.264C25.2377 14.864 25.3017 14.344 25.4297 13.704L27.0617 6H30.5177L28.7897 14.16C28.7417 14.4 28.7177 14.624 28.7177 14.832C28.7177 15.488 28.9577 15.816 29.4377 15.816C29.8857 15.816 30.2697 15.632 30.5897 15.264C30.9097 14.88 31.1657 14.36 31.3577 13.704L32.9897 6H36.4457L34.7177 14.16C34.6537 14.4 34.6217 14.656 34.6217 14.928C34.6217 15.248 34.6937 15.48 34.8377 15.624C34.9977 15.752 35.2537 15.816 35.6057 15.816C36.0537 15.816 36.4377 15.624 36.7577 15.24C37.0937 14.856 37.3577 14.344 37.5497 13.704H38.5577C37.9657 15.432 37.2297 16.608 36.3497 17.232C35.4857 17.84 34.6137 18.144 33.7337 18.144C33.0457 18.144 32.4937 17.952 32.0777 17.568C31.6777 17.184 31.4377 16.616 31.3577 15.864C30.8137 16.744 30.2377 17.344 29.6297 17.664C29.0377 17.984 28.4297 18.144 27.8057 18.144ZM39.1789 6H42.6349L42.3229 7.488C42.8669 7.008 43.3549 6.64 43.7869 6.384C44.2349 6.128 44.7149 6 45.2269 6C45.7389 6 46.1389 6.176 46.4269 6.528C46.7309 6.88 46.8829 7.304 46.8829 7.8C46.8829 8.264 46.7309 8.672 46.4269 9.024C46.1229 9.376 45.6989 9.552 45.1549 9.552C44.8029 9.552 44.5629 9.472 44.4349 9.312C44.3229 9.136 44.2349 8.888 44.1709 8.568C44.1229 8.36 44.0749 8.208 44.0269 8.112C43.9789 8.016 43.8909 7.968 43.7629 7.968C43.4269 7.968 43.1389 8.04 42.8989 8.184C42.6749 8.312 42.3789 8.544 42.0109 8.88L40.0909 18H36.6349L39.1789 6ZM55.2343 18.144C54.2583 18.144 53.5383 17.888 53.0743 17.376C52.6263 16.848 52.4023 16.2 52.4023 15.432C52.4023 15.096 52.4423 14.72 52.5223 14.304C52.6023 13.872 52.6823 13.456 52.7623 13.056C52.8583 12.656 52.9223 12.4 52.9543 12.288C53.0823 11.728 53.2023 11.176 53.3143 10.632C53.4263 10.088 53.4823 9.648 53.4823 9.312C53.4823 8.496 53.1943 8.088 52.6183 8.088C52.2023 8.088 51.8343 8.296 51.5143 8.712C51.1943 9.112 50.9383 9.64 50.7463 10.296L49.1143 18H45.6583L49.1383 1.68L52.6903 1.2L51.3943 7.248C52.1943 6.352 53.1303 5.904 54.2023 5.904C55.0183 5.904 55.6663 6.128 56.1463 6.576C56.6263 7.024 56.8663 7.704 56.8663 8.616C56.8663 9.08 56.8103 9.6 56.6983 10.176C56.5863 10.736 56.4263 11.424 56.2183 12.24C56.0903 12.736 55.9703 13.224 55.8583 13.704C55.7623 14.168 55.7143 14.536 55.7143 14.808C55.7143 15.128 55.7863 15.376 55.9303 15.552C56.0743 15.728 56.3223 15.816 56.6743 15.816C57.1543 15.816 57.5383 15.648 57.8263 15.312C58.1143 14.96 58.4023 14.424 58.6903 13.704H59.6983C59.1063 15.464 58.4183 16.648 57.6343 17.256C56.8663 17.848 56.0663 18.144 55.2343 18.144ZM62.1915 18.096C61.0075 18.096 60.0715 17.792 59.3835 17.184C58.6955 16.576 58.3515 15.616 58.3515 14.304C58.3515 13.216 58.5755 12.008 59.0235 10.68C59.4715 9.352 60.1915 8.208 61.1835 7.248C62.1755 6.272 63.4235 5.784 64.9275 5.784C66.9755 5.784 67.9995 7.064 67.9995 9.624V9.648C68.0475 9.664 68.1355 9.672 68.2635 9.672C68.7915 9.672 69.3995 9.536 70.0875 9.264C70.7755 8.976 71.3995 8.632 71.9595 8.232L72.1755 8.88C71.7115 9.376 71.1035 9.8 70.3515 10.152C69.6155 10.488 68.8075 10.728 67.9275 10.872C67.7995 12.328 67.4715 13.6 66.9435 14.688C66.4155 15.776 65.7355 16.616 64.9035 17.208C64.0715 17.8 63.1675 18.096 62.1915 18.096ZM63.1515 15.936C63.5355 15.936 63.9195 15.72 64.3035 15.288C64.6875 14.84 65.0235 14.24 65.3115 13.488C65.5995 12.72 65.8075 11.872 65.9355 10.944C65.5035 10.848 65.2875 10.512 65.2875 9.936C65.2875 9.28 65.5355 8.848 66.0315 8.64C65.9995 8.112 65.9195 7.752 65.7915 7.56C65.6635 7.352 65.4395 7.248 65.1195 7.248C64.5915 7.248 64.0795 7.632 63.5835 8.4C63.0875 9.168 62.6875 10.088 62.3835 11.16C62.0795 12.232 61.9275 13.176 61.9275 13.992C61.9275 14.76 62.0155 15.28 62.1915 15.552C62.3675 15.808 62.6875 15.936 63.1515 15.936ZM71.6104 18.144C70.8424 18.144 70.2184 17.904 69.7384 17.424C69.2744 16.944 69.0424 16.224 69.0424 15.264C69.0424 14.864 69.1064 14.344 69.2344 13.704L70.6744 6.96H69.8824L70.0744 6H70.8664L71.5864 2.688L75.1384 2.208L74.3224 6H75.7624L75.5704 6.96H74.1304L72.5944 14.16C72.5304 14.4 72.4984 14.656 72.4984 14.928C72.4984 15.248 72.5704 15.48 72.7144 15.624C72.8744 15.752 73.1304 15.816 73.4824 15.816C73.9464 15.816 74.3784 15.624 74.7784 15.24C75.1784 14.84 75.4664 14.328 75.6424 13.704H76.6504C76.0584 15.432 75.2984 16.608 74.3704 17.232C73.4424 17.84 72.5224 18.144 71.6104 18.144ZM78.5128 18.144C77.6008 18.144 76.8408 17.832 76.2328 17.208C75.6248 16.584 75.3208 15.608 75.3208 14.28C75.3208 13.096 75.5528 11.856 76.0168 10.56C76.4968 9.248 77.2008 8.144 78.1288 7.248C79.0728 6.336 80.1928 5.88 81.4888 5.88C82.1448 5.88 82.6328 5.992 82.9528 6.216C83.2728 6.44 83.4328 6.736 83.4328 7.104V7.272L83.6968 6H87.1528L85.4248 14.16C85.3608 14.4 85.3288 14.656 85.3288 14.928C85.3288 15.616 85.6568 15.96 86.3128 15.96C86.7608 15.96 87.1448 15.752 87.4648 15.336C87.8008 14.92 88.0648 14.376 88.2568 13.704H89.2648C88.6728 15.432 87.9368 16.608 87.0568 17.232C86.1928 17.84 85.3208 18.144 84.4408 18.144C83.7688 18.144 83.2248 17.96 82.8088 17.592C82.4088 17.208 82.1688 16.656 82.0888 15.936C81.6248 16.592 81.1048 17.128 80.5288 17.544C79.9688 17.944 79.2968 18.144 78.5128 18.144ZM80.0728 15.816C80.4728 15.816 80.8648 15.632 81.2488 15.264C81.6488 14.88 81.9208 14.36 82.0648 13.704L83.2168 8.28C83.2168 8.072 83.1368 7.872 82.9768 7.68C82.8168 7.472 82.5688 7.368 82.2328 7.368C81.5928 7.368 81.0168 7.744 80.5048 8.496C79.9928 9.232 79.5928 10.128 79.3048 11.184C79.0168 12.224 78.8728 13.144 78.8728 13.944C78.8728 14.744 78.9848 15.256 79.2088 15.48C79.4488 15.704 79.7368 15.816 80.0728 15.816ZM92.2736 4.704C91.7456 4.704 91.2976 4.52 90.9296 4.152C90.5616 3.784 90.3776 3.336 90.3776 2.808C90.3776 2.28 90.5616 1.832 90.9296 1.464C91.2976 1.08 91.7456 0.887999 92.2736 0.887999C92.8016 0.887999 93.2496 1.08 93.6176 1.464C94.0016 1.832 94.1936 2.28 94.1936 2.808C94.1936 3.336 94.0016 3.784 93.6176 4.152C93.2496 4.52 92.8016 4.704 92.2736 4.704ZM90.6416 18.144C89.8736 18.144 89.2496 17.904 88.7696 17.424C88.3056 16.944 88.0736 16.224 88.0736 15.264C88.0736 14.864 88.1376 14.344 88.2656 13.704L89.8976 6H93.3536L91.6256 14.16C91.5616 14.4 91.5296 14.656 91.5296 14.928C91.5296 15.248 91.6016 15.48 91.7456 15.624C91.9056 15.752 92.1616 15.816 92.5136 15.816C92.9776 15.816 93.4096 15.624 93.8096 15.24C94.2096 14.84 94.4976 14.328 94.6736 13.704H95.6816C95.0896 15.432 94.3296 16.608 93.4016 17.232C92.4736 17.84 91.5536 18.144 90.6416 18.144ZM96.9921 18.144C96.2241 18.144 95.6001 17.904 95.1201 17.424C94.6561 16.928 94.4241 16.192 94.4241 15.216C94.4241 14.816 94.4881 14.296 94.6161 13.656L97.1841 1.632L100.736 1.152L97.9761 14.112C97.9121 14.352 97.8801 14.584 97.8801 14.808C97.8801 15.448 98.2081 15.768 98.8641 15.768C99.1521 15.768 99.4081 15.72 99.6321 15.624C99.5681 16.424 99.2801 17.048 98.7681 17.496C98.2721 17.928 97.6801 18.144 96.9921 18.144Z" fill="white"/>
<path d="M102.273 18.096C101.745 18.096 101.297 17.912 100.929 17.544C100.561 17.176 100.377 16.728 100.377 16.2C100.377 15.672 100.561 15.224 100.929 14.856C101.297 14.472 101.745 14.28 102.273 14.28C102.801 14.28 103.249 14.472 103.617 14.856C104.001 15.224 104.193 15.672 104.193 16.2C104.193 16.728 104.001 17.176 103.617 17.544C103.249 17.912 102.801 18.096 102.273 18.096Z" fill="#FF0000"/>
</svg>
